<?xml version="1.0" encoding="UTF-8" standalone="no"?>
<!-- Created with Inkscape (http://www.inkscape.org/) -->

<svg
   xmlns:dc="http://purl.org/dc/elements/1.1/"
   xmlns:cc="http://creativecommons.org/ns#"
   xmlns:rdf="http://www.w3.org/1999/02/22-rdf-syntax-ns#"
   xmlns:svg="http://www.w3.org/2000/svg"
   xmlns="http://www.w3.org/2000/svg"
   xmlns:sodipodi="http://sodipodi.sourceforge.net/DTD/sodipodi-0.dtd"
   xmlns:inkscape="http://www.inkscape.org/namespaces/inkscape"
   width="210mm"
   height="297mm"
   viewBox="0 0 210 297"
   version="1.1"
   id="svg236"
   inkscape:version="0.92.1 r15371"
   sodipodi:docname="annisa-Robynph 7001-source file.svg">
  <defs
     id="defs230" />
  <sodipodi:namedview
     id="base"
     pagecolor="#ffffff"
     bordercolor="#666666"
     borderopacity="1.0"
     inkscape:pageopacity="0.0"
     inkscape:pageshadow="2"
     inkscape:zoom="0.35"
     inkscape:cx="400"
     inkscape:cy="560"
     inkscape:document-units="mm"
     inkscape:current-layer="layer1"
     showgrid="false"
     inkscape:window-width="1366"
     inkscape:window-height="705"
     inkscape:window-x="-8"
     inkscape:window-y="-8"
     inkscape:window-maximized="1" />
  <metadata
     id="metadata233">
    <rdf:RDF>
      <cc:Work
         rdf:about="">
        <dc:format>image/svg+xml</dc:format>
        <dc:type
           rdf:resource="http://purl.org/dc/dcmitype/StillImage" />
        <dc:title></dc:title>
      </cc:Work>
    </rdf:RDF>
  </metadata>
  <g
     inkscape:label="Layer 1"
     inkscape:groupmode="layer"
     id="layer1">
    <rect
       style="fill:#ffffff;fill-opacity:1;stroke:none;stroke-width:0.41803592"
       id="rect252"
       width="201.55304"
       height="123.022"
       x="3.9228821"
       y="71.726189" />
    <text
       xml:space="preserve"
       style="font-style:normal;font-variant:normal;font-weight:bold;font-stretch:normal;font-size:16.72143745px;line-height:1.25;font-family:Cambria;-inkscape-font-specification:'Cambria Bold';letter-spacing:0px;word-spacing:0px;fill:#000000;fill-opacity:1;stroke:none;stroke-width:0.41803592"
       x="97.574242"
       y="139.01785"
       id="text258"><tspan
         sodipodi:role="line"
         id="tspan256"
         x="97.574242"
         y="139.01785"
         style="font-style:normal;font-variant:normal;font-weight:bold;font-stretch:normal;font-family:Cambria;-inkscape-font-specification:'Cambria Bold';stroke-width:0.41803592">redh<tspan
   style="font-style:normal;font-variant:normal;font-weight:bold;font-stretch:normal;font-family:Cambria;-inkscape-font-specification:'Cambria Bold';fill:#aa0000;stroke-width:0.41803592"
   id="tspan254">IO</tspan></tspan></text>
    <path
       sodipodi:nodetypes="ccccc"
       inkscape:connector-curvature="0"
       id="path260"
       d="m 59.562866,121.60179 c 0,0 1.507409,-1.74024 4.354216,1.12369 3.030619,3.16429 5.464039,6.32292 5.464039,6.32292 l -5.550734,-1.62945 z"
       style="fill:#800000;fill-opacity:1;stroke:none;stroke-width:0.41803592px;stroke-linecap:butt;stroke-linejoin:miter;stroke-opacity:1" />
    <path
       inkscape:connector-curvature="0"
       style="fill:#550000;fill-opacity:1;stroke:none;stroke-width:0.41803592px;stroke-linecap:butt;stroke-linejoin:miter;stroke-opacity:1"
       d="m 62.485332,123.8979 c -0.46412,0.007 -0.776255,0.17317 -0.98467,0.34456 l 2.329409,3.17608 3.525544,1.0353 c 0.449852,-0.26536 0.766723,-0.58798 0.954459,-0.73809 -0.526579,-0.6457 -1.167715,-1.41615 -1.997915,-2.36533 -0.768405,-0.3206 -1.654365,-0.79005 -2.675593,-1.20268 -0.461896,-0.18662 -0.840389,-0.25422 -1.151234,-0.24984 z"
       id="path262" />
    <path
       style="fill:#800000;fill-opacity:1;stroke:none;stroke-width:0.41803592px;stroke-linecap:butt;stroke-linejoin:miter;stroke-opacity:1"
       d="m 97.282716,149.92008 c 0,0 -1.49074,1.75455 -4.364737,-1.08213 -3.060623,-3.13528 -5.524047,-6.27054 -5.524047,-6.27054 l 5.565996,1.57643 z"
       id="path264"
       inkscape:connector-curvature="0"
       sodipodi:nodetypes="ccccc" />
    <path
       inkscape:connector-curvature="0"
       style="fill:#550000;fill-opacity:1;stroke:none;stroke-width:0.41803592px;stroke-linecap:butt;stroke-linejoin:miter;stroke-opacity:1"
       d="m 87.393577,142.56745 c 0,0 1.28399,1.6285 3.136905,3.70436 2.111307,0.61614 3.100966,-0.73319 3.208753,-0.86792 l -5.334858,-2.54985 z"
       id="path266" />
    <path
       sodipodi:nodetypes="cccc"
       inkscape:connector-curvature="0"
       id="path268"
       d="m 80.647599,120.14656 c -14.066723,12.43065 -16.242922,1.507 -19.192329,5.42572 8.023145,9.60951 7.714859,7.00327 23.64436,-7.08531 -1.487203,-1.64844 -3.030651,0.40013 -4.452031,1.65959 z"
       style="fill:#000000;fill-opacity:1;stroke:none;stroke-width:0.71879017px;stroke-linecap:butt;stroke-linejoin:miter;stroke-opacity:1" />
    <path
       style="fill:#000000;fill-opacity:1;stroke:none;stroke-width:0.71879017px;stroke-linecap:butt;stroke-linejoin:miter;stroke-opacity:1"
       d="m 71.47753,147.31041 c 14.066689,-12.43063 18.010411,2.99166 21.482398,-3.16657 -11.401393,-11.61535 -10.004961,-9.26242 -25.934444,4.82618 1.487233,1.64842 3.030665,-0.40016 4.452046,-1.65961 z"
       id="path270"
       inkscape:connector-curvature="0"
       sodipodi:nodetypes="cccc" />
    <path
       sodipodi:nodetypes="cccc"
       inkscape:connector-curvature="0"
       id="path272"
       d="m 94.863486,144.14384 c -17.10897,-17.87365 2.995181,-23.87652 -5.297272,-28.12606 -14.69922,15.62491 -11.673671,13.66235 7.716502,33.9023 2.092982,-2.04511 -0.685978,-3.97032 -2.41923,-5.77624 z"
       style="fill:#aa0000;fill-opacity:1;stroke:none;stroke-width:0.94739163px;stroke-linecap:butt;stroke-linejoin:miter;stroke-opacity:1" />
    <path
       style="fill:#aa0000;fill-opacity:1;stroke:none;stroke-width:0.71879017px;stroke-linecap:butt;stroke-linejoin:miter;stroke-opacity:1"
       d="m 60.927414,126.15293 c 13.013666,16.32845 -2.767507,19.48722 3.150145,23.35498 12.336994,-10.61634 8.500631,-11.08831 -4.514693,-27.90612 -1.742275,1.37608 0.200847,3.05033 1.364548,4.55114 z"
       id="path274"
       inkscape:connector-curvature="0"
       sodipodi:nodetypes="cccc" />
  </g>
</svg>
